<?xml version="1.0" encoding="UTF-8"?>
<!DOCTYPE svg PUBLIC "-//W3C//DTD SVG 1.0//EN" "http://www.w3.org/TR/2001/REC-SVG-20010904/DTD/svg10.dtd">
<svg xmlns="http://www.w3.org/2000/svg" xml:space="preserve" width="20mm" height="20mm" version="1.0" style="shape-rendering:geometricPrecision; text-rendering:geometricPrecision; image-rendering:optimizeQuality; fill-rule:evenodd; clip-rule:evenodd"
viewBox="0 0 2000 2000"
 xmlns:xlink="http://www.w3.org/1999/xlink">
 <defs>
  <style type="text/css">
   <![CDATA[
    .str0 {stroke:#0F64AD;stroke-width:30}
    .fil2 {fill:none}
    .fil0 {fill:#E31E24}
    .fil1 {fill:#E31E24;fill-rule:nonzero}
    .fil3 {fill:#0F64AD;fill-rule:nonzero}
   ]]>
  </style>
 </defs>
 <g id="Katman_x0020_1">
  <metadata id="LAYERGIBLOGO"/>
  <g id="GIB_MUHUR">
   <path id="LG" class="fil0" d="M1406 336c-310,186 -517,526 -517,914 0,128 23,251 64,365l-340 0c-68,-140 -106,-297 -106,-464 0,-327 147,-620 379,-815l520 0zm-13 205c62,18 91,103 66,189 -25,87 -95,143 -157,125 -61,-18 -91,-103 -66,-189 25,-87 96,-142 157,-125zm-386 335l394 5 -108 742 -278 0 111 -595 -182 0 63 -152z"/>
   <path id="GIB" class="fil1" d="M211 1418l14 -7 17 34 -31 16c-5,-1 -11,-5 -16,-10 -6,-5 -10,-11 -14,-17 -4,-8 -6,-16 -5,-24 0,-8 2,-15 7,-22 5,-6 11,-11 19,-15 8,-4 16,-6 25,-6 8,0 15,3 22,8 5,3 10,9 13,16 5,10 7,19 6,26 -1,8 -5,14 -12,20l-11 -15c4,-3 6,-6 6,-11 1,-4 0,-8 -2,-13 -4,-7 -9,-11 -15,-13 -7,-2 -14,0 -23,4 -9,5 -15,10 -18,17 -2,7 -2,13 1,20 2,3 4,6 7,9 3,3 7,5 10,6l10 -5 -10 -18zm49 103l8 16c-6,1 -12,1 -18,-1 -5,-2 -10,-6 -14,-11 -6,-9 -8,-18 -5,-27 2,-7 7,-13 14,-18 9,-6 18,-8 26,-7 8,1 14,5 19,12 6,7 7,15 5,24 -2,8 -8,15 -19,23l-24 -35c-4,3 -7,6 -7,10 -1,4 0,7 2,10 1,3 3,4 5,5 3,0 5,0 8,-1zm15 -9c4,-3 6,-6 7,-10 1,-3 0,-6 -2,-9 -2,-3 -5,-5 -8,-5 -4,-1 -8,1 -11,3l14 21zm3 67l69 -56 11 13 -69 56 -11 -13zm92 -5l12 -10 11 12 -11 11 -12 -13zm-53 50l47 -44 12 13 -47 43 -12 -12zm54 54l-12 -11 43 -47 12 10 -6 7c5,-1 8,-2 11,-1 2,0 4,1 6,3 3,3 5,6 6,10l-13 8c-1,-4 -3,-6 -4,-8 -2,-2 -4,-2 -6,-3 -2,0 -5,1 -8,3 -3,2 -8,7 -15,15l-14 14zm110 88l49 -74 15 10 -49 74 -15 -10zm54 -80l8 -14 14 9 -8 14 -14 -9zm49 141l-14 -8 5 -8c-4,2 -8,3 -12,3 -4,0 -8,-1 -11,-3 -7,-4 -11,-9 -12,-17 -2,-8 0,-16 5,-26 5,-9 11,-15 19,-18 7,-2 14,-1 21,2 6,4 10,10 12,17l15 -28 15 9 -43 77zm-23 -51c-4,6 -5,11 -5,14 0,5 2,9 7,12 3,1 7,2 11,0 4,-2 7,-5 11,-11 3,-6 5,-12 4,-16 -1,-4 -3,-7 -7,-9 -3,-2 -7,-2 -11,-1 -4,2 -7,5 -10,11zm90 33l-13 -9c5,-5 9,-8 14,-9 5,-1 12,0 19,3 7,3 12,6 15,9 2,3 4,6 4,10 0,3 -1,8 -4,14l-8 18c-2,6 -3,10 -4,12 0,3 -1,6 0,9l-16 -6c0,-1 0,-3 1,-5 0,-2 0,-2 0,-3 -4,2 -8,3 -11,3 -4,0 -7,-1 -11,-2 -6,-3 -10,-7 -12,-11 -2,-5 -2,-10 0,-15 2,-4 4,-6 6,-8 3,-2 6,-3 10,-3 3,0 8,0 14,1 7,2 13,3 16,3l1 -1c1,-4 1,-6 1,-8 -1,-2 -4,-4 -8,-5 -3,-2 -5,-2 -7,-2 -2,1 -4,2 -7,5zm16 21c-2,0 -6,-1 -10,-1 -5,-1 -8,-2 -10,-1 -3,0 -5,2 -6,4 0,2 0,4 1,7 0,2 2,3 5,5 3,1 6,1 9,0 2,0 4,-2 6,-3 1,-2 2,-4 4,-8l1 -3zm59 53l-16 -5 19 -61 15 5 -3 8c4,-3 7,-5 9,-5 3,-1 5,-1 8,0 4,1 7,3 10,6l-10 13c-2,-3 -4,-5 -6,-5 -3,-1 -5,-1 -7,0 -2,1 -4,2 -6,5 -1,3 -4,10 -7,20l-6 19zm96 4l16 6c-4,6 -8,10 -13,12 -5,2 -12,3 -18,1 -11,-2 -19,-7 -23,-15 -3,-7 -3,-14 -1,-23 2,-11 6,-18 12,-23 7,-5 15,-7 23,-5 9,2 16,6 20,14 4,7 5,17 2,30l-41 -9c-1,5 -1,10 1,13 2,3 5,5 9,6 3,0 5,0 7,-1 2,-1 4,-3 6,-6zm4 -17c1,-5 0,-9 -2,-12 -2,-2 -4,-4 -8,-5 -3,-1 -6,0 -9,2 -3,2 -5,6 -6,10l25 5zm44 28l18 -1c0,4 1,6 3,8 2,2 5,3 9,4 4,0 8,0 10,-1 2,-1 3,-3 3,-5 0,-1 0,-2 -1,-3 -1,-1 -3,-2 -5,-3 -14,-4 -22,-8 -25,-11 -5,-4 -7,-9 -6,-15 1,-6 4,-10 8,-14 5,-3 12,-4 21,-3 9,1 15,4 19,7 4,3 6,8 7,14l-16 1c0,-3 -1,-5 -3,-7 -2,-1 -4,-2 -8,-3 -4,0 -8,0 -10,1 -1,1 -2,2 -2,3 0,2 0,3 1,4 2,1 7,3 15,6 9,3 15,7 18,10 3,4 5,8 4,13 -1,6 -4,11 -9,14 -6,4 -13,5 -23,4 -8,-1 -15,-4 -19,-8 -5,-4 -8,-9 -9,-15zm99 -46l1 -16 17 0 -1 16 -17 0zm-1 72l1 -64 17 1 -1 64 -17 -1zm131 -93l35 -5c7,-1 12,-2 16,-2 3,0 7,1 9,3 3,1 6,3 8,6 2,3 4,6 4,10 1,4 1,8 -1,11 -2,4 -5,7 -8,9 6,1 10,3 13,7 4,3 6,7 7,12 0,4 0,8 -1,12 -2,4 -4,8 -7,10 -3,3 -6,5 -11,6 -3,1 -10,2 -21,4l-30 4 -13 -87zm20 12l3 20 12 -2c6,-1 11,-1 12,-2 3,-1 6,-2 7,-4 1,-2 2,-4 2,-7 -1,-3 -2,-5 -4,-7 -1,-1 -4,-2 -7,-2 -1,0 -7,1 -15,2l-10 2zm5 35l4 23 16 -2c6,-1 10,-2 12,-3 3,-1 5,-2 6,-4 1,-2 2,-5 1,-8 0,-3 -1,-5 -3,-6 -1,-2 -3,-3 -6,-4 -2,0 -8,0 -16,1l-14 3zm101 -27l-15 2c-1,-6 1,-12 4,-16 4,-4 9,-7 17,-9 7,-2 13,-3 17,-2 4,0 7,2 10,4 2,2 4,7 6,14l5 19c2,6 3,10 4,12 1,2 3,5 5,7l-16 5c0,-1 -1,-2 -3,-4 0,-1 -1,-2 -1,-2 -2,3 -4,6 -7,9 -3,2 -6,4 -9,5 -7,1 -12,1 -17,-1 -5,-3 -8,-7 -9,-12 -1,-3 -1,-7 0,-10 1,-3 2,-6 5,-8 3,-2 7,-5 12,-8 7,-3 12,-6 15,-8l-1 -2c-1,-3 -2,-5 -4,-6 -2,-1 -5,-1 -9,1 -3,0 -5,2 -7,3 -1,2 -2,4 -2,7zm26 7c-2,2 -5,4 -10,6 -4,2 -7,4 -8,5 -1,2 -2,4 -1,7 0,2 2,4 4,5 2,1 5,1 7,1 3,-1 6,-3 8,-6 1,-2 2,-4 2,-6 0,-2 0,-4 -2,-8l0 -4zm52 -3l15 -8c2,2 4,4 7,5 2,1 6,0 9,-1 4,-2 7,-4 9,-6 1,-1 1,-3 0,-5 0,-1 -1,-2 -2,-2 -1,-1 -3,-1 -6,0 -14,2 -23,2 -28,1 -6,-1 -10,-5 -12,-10 -2,-6 -2,-11 1,-16 3,-5 8,-9 17,-13 8,-3 15,-4 20,-3 5,1 9,4 13,9l-14 9c-2,-3 -4,-4 -6,-4 -2,-1 -5,-1 -8,1 -4,1 -7,3 -9,5 0,1 -1,3 0,4 0,1 1,2 3,2 1,1 7,0 16,-1 9,-2 16,-2 21,0 4,1 7,5 9,10 2,5 2,11 -1,17 -3,5 -9,10 -18,13 -8,4 -15,4 -22,3 -6,-1 -10,-5 -14,-10zm27 34l-3 -6c4,-1 8,-2 11,-4 4,-1 6,-3 7,-4 1,-2 1,-3 0,-5 0,-1 -1,-2 -3,-2 -1,-1 -3,-1 -6,0 -2,1 -4,3 -7,4l0 -6c2,-2 5,-4 9,-5 4,-2 8,-2 12,-1 3,1 5,3 6,6 1,3 1,7 -1,10 -2,4 -7,7 -14,10 -5,2 -8,3 -11,3zm72 -56l-40 -79 15 -7 21 42 7 -29 19 -10 -9 31 39 26 -16 8 -27 -19 -4 11 10 19 -15 7zm69 -88l-14 6c-2,-6 -3,-12 -1,-17 2,-4 6,-9 13,-14 7,-4 12,-7 16,-7 4,-1 7,0 10,1 3,2 6,5 10,11l11 17c3,5 6,8 8,10 2,2 4,4 7,5l-14 10c-1,-1 -2,-2 -4,-4 -1,0 -1,-1 -1,-1 -1,4 -3,8 -4,11 -2,3 -5,5 -8,7 -5,4 -11,5 -16,5 -5,-1 -9,-4 -12,-8 -2,-3 -3,-7 -3,-10 -1,-3 0,-6 2,-9 2,-3 5,-7 9,-11 6,-6 9,-10 11,-13l-1 -1c-2,-3 -4,-5 -6,-5 -2,0 -5,1 -8,4 -3,1 -5,3 -5,5 -1,2 -1,4 0,8zm26 -2c-1,2 -3,5 -7,8 -3,4 -5,6 -6,8 -1,2 0,5 1,7 1,2 3,3 6,3 2,1 4,0 7,-1 2,-2 4,-5 5,-8 1,-2 1,-5 0,-7 0,-1 -1,-4 -4,-7l-2 -3zm111 -45l-13 10 -21 -25c-4,-5 -8,-8 -9,-9 -2,-2 -4,-2 -6,-2 -2,0 -4,1 -6,3 -2,1 -4,4 -4,7 -1,2 -1,5 0,8 1,2 4,6 8,12l19 22 -13 11 -41 -50 12 -10 6 8c0,-9 3,-17 9,-22 3,-3 6,-4 10,-5 3,-1 6,-1 8,-1 3,1 5,2 8,4 2,1 4,4 7,8l26 31zm31 -29l-62 -63 12 -12 62 63 -12 12zm42 -43l-48 -43 11 -12 49 42 -12 13zm42 -42l14 -14c2,1 3,1 5,1 2,0 4,-2 6,-5 2,-3 4,-6 4,-9 0,-2 0,-3 -1,-5 -1,-1 -3,-3 -6,-6l-7 -5c2,8 1,15 -4,21 -5,7 -12,10 -21,10 -7,-1 -14,-3 -20,-9 -9,-6 -14,-13 -15,-21 -1,-7 0,-14 5,-20 5,-6 11,-9 20,-9l-7 -6 10 -12 45 35c6,4 10,8 12,11 3,4 4,7 4,10 0,3 0,6 -1,10 -2,4 -4,8 -8,13 -6,8 -12,13 -18,14 -6,2 -11,1 -16,-3 0,0 -1,-1 -1,-1zm-21 -35c6,4 11,6 15,6 4,0 7,-2 9,-5 3,-3 4,-7 3,-11 -1,-4 -4,-8 -9,-12 -5,-4 -10,-6 -14,-6 -4,0 -8,2 -10,5 -3,4 -3,7 -3,11 1,4 4,8 9,12zm-29 -54l5 -7c4,4 6,8 7,12 0,5 -1,9 -4,14 -4,4 -8,6 -12,7 -5,1 -9,0 -14,-3l5 -7c3,2 5,2 7,2 2,-1 5,-2 7,-5 2,-2 2,-5 2,-7 0,-2 -1,-5 -3,-6zm106 3l-54 -34 9 -14 54 34 -9 14z"/>
   <path id="GY" class="fil2" d="M1793 1476c-167,279 -468,449 -793,449 -354,0 -676,-202 -831,-520"/>
   <path id="YU" class="fil2" d="M183 566c161,-302 475,-491 817,-491 336,0 646,182 809,477"/>
   <path id="TC" class="fil3" d="M272 582l-63 -38 -14 22 -12 -7 36 -61 13 8 -14 22 63 38 -9 16zm27 -45l-14 -9 10 -14 14 10 -10 13zm125 -193l17 -8c4,9 6,17 5,25 -1,8 -5,15 -12,21 -9,8 -19,12 -30,12 -11,-1 -21,-7 -31,-17 -10,-10 -15,-21 -15,-32 0,-12 5,-21 14,-30 7,-7 16,-11 25,-11 6,0 12,2 18,6l-10 15c-4,-3 -8,-4 -12,-4 -4,1 -8,3 -12,6 -4,4 -7,10 -6,16 0,6 4,13 11,21 8,8 15,12 21,13 6,1 11,-1 16,-6 3,-3 5,-7 6,-11 0,-5 -1,-10 -5,-16zm56 -3l-11 -13 14 -11 10 14 -13 10zm81 -59l-41 -78 24 -13 42 46 -14 -60 23 -13 41 79 -14 7 -33 -61 17 69 -15 8 -48 -53 33 61 -15 8zm175 -80l-18 7 -14 -16 -33 12 0 22 -18 6 2 -95 17 -6 64 70zm-42 -21l-23 -27 0 35 23 -8zm62 15l-22 -85 17 -5 18 71 43 -11 4 15 -60 15zm82 -20l-17 -86 17 -4 18 87 -18 3zm-18 -94l-3 -16 16 -3 3 15 -16 4zm86 83l-4 -37 -36 -48 21 -2 24 33 17 -36 20 -2 -28 54 3 37 -17 1zm69 -5l1 -89 66 2 0 15 -48 -1 0 19 44 1 0 15 -45 -1 0 24 49 1 0 15 -67 -1zm163 -78l35 6c7,1 12,3 15,4 4,1 7,3 9,5 2,2 4,5 5,8 2,4 2,7 1,11 -1,4 -2,8 -5,11 -3,3 -6,5 -10,6 5,2 8,6 10,10 2,4 3,9 2,14 -1,4 -2,7 -5,11 -2,3 -5,6 -9,7 -3,2 -8,3 -12,2 -3,0 -10,-1 -22,-3l-29 -5 15 -87zm15 17l-3 20 11 3c7,1 11,1 13,2 3,0 6,-1 8,-2 2,-2 3,-4 4,-7 0,-2 0,-5 -1,-6 -2,-2 -4,-4 -7,-5 -1,0 -6,-1 -14,-3l-11 -2zm-6 35l-4 23 16 3c7,1 11,2 12,2 3,0 5,-1 7,-2 2,-2 4,-4 4,-7 1,-3 0,-5 0,-7 -1,-2 -3,-4 -5,-5 -2,-2 -8,-3 -16,-4l-14 -3zm149 79l-18 -6 -1 -21 -34 -11 -13 17 -18 -6 60 -74 18 6 6 95zm-20 -43l-2 -35 -21 27 23 8zm39 51l35 -81 17 7 -16 36 49 -21 22 10 -45 18 10 63 -21 -9 -5 -48 -19 8 -11 24 -16 -7zm157 84l-16 -10 4 -21 -30 -19 -17 13 -16 -10 75 -57 16 10 -16 94zm-9 -47l6 -35 -27 22 21 13zm25 58l54 -70 14 10 -7 70 36 -47 13 10 -54 70 -14 -11 7 -68 -35 46 -14 -10zm79 63l62 -62 13 13 -52 51 31 32 -11 10 -43 -44zm58 61l66 -60 12 14 -66 59 -12 -13zm81 48l12 -9 22 31 -28 21c-5,-1 -11,-4 -18,-8 -6,-4 -11,-9 -16,-15 -5,-7 -8,-15 -9,-23 -1,-8 1,-15 4,-22 4,-7 10,-13 17,-18 7,-5 15,-9 23,-10 8,-1 16,1 23,4 6,3 11,8 16,15 7,9 10,17 10,25 -1,7 -3,14 -9,21l-13 -13c3,-3 4,-7 4,-12 0,-4 -1,-8 -4,-12 -5,-7 -10,-10 -17,-11 -7,-1 -14,2 -22,7 -9,7 -14,13 -15,20 -2,7 0,13 4,19 2,3 5,6 9,8 3,2 6,4 10,5l9 -7 -12 -16zm72 -39l5 6c-5,3 -10,4 -14,3 -5,-1 -8,-3 -11,-8 -4,-4 -5,-8 -4,-13 0,-5 3,-9 7,-12l5 7c-3,1 -4,3 -4,6 0,2 1,4 3,7 2,3 4,4 6,5 2,0 4,0 7,-1zm-63 111l76 -46 9 15 -75 47 -10 -16z"/>
   <circle id="D" class="fil2 str0" cx="1000" cy="1000" r="992"/>
  </g>
 </g>
</svg>
